<mxfile host="65bd71144e">
    <diagram id="ueN_PJ_Pp5nHT2oWGWZ4" name="Page-1">
        <mxGraphModel dx="1945" dy="603" grid="1" gridSize="10" guides="1" tooltips="1" connect="1" arrows="1" fold="1" page="1" pageScale="1" pageWidth="827" pageHeight="1169" math="0" shadow="0">
            <root>
                <mxCell id="0"/>
                <mxCell id="1" parent="0"/>
                <mxCell id="38" value="" style="rounded=0;whiteSpace=wrap;html=1;fontFamily=Helvetica;fontSize=13;fontColor=#000000;fillColor=#FFCCE6;" parent="1" vertex="1">
                    <mxGeometry x="60" y="1120" width="1190" height="150" as="geometry"/>
                </mxCell>
                <mxCell id="2" value="&lt;h1&gt;controller&lt;/h1&gt;" style="rounded=0;whiteSpace=wrap;html=1;" parent="1" vertex="1">
                    <mxGeometry x="120" y="80" width="220" height="60" as="geometry"/>
                </mxCell>
                <mxCell id="3" value="&lt;h1&gt;sessionController&lt;/h1&gt;" style="rounded=0;whiteSpace=wrap;html=1;" parent="1" vertex="1">
                    <mxGeometry x="120" y="400" width="220" height="60" as="geometry"/>
                </mxCell>
                <mxCell id="4" value="" style="shape=flexArrow;endArrow=classic;html=1;fontFamily=Helvetica;fontSize=13;" parent="1" edge="1">
                    <mxGeometry width="50" height="50" relative="1" as="geometry">
                        <mxPoint x="130" y="580" as="sourcePoint"/>
                        <mxPoint x="110" y="910" as="targetPoint"/>
                        <Array as="points">
                            <mxPoint x="20" y="750"/>
                        </Array>
                    </mxGeometry>
                </mxCell>
                <mxCell id="5" value="不要" style="text;html=1;align=center;verticalAlign=middle;resizable=0;points=[];autosize=1;strokeColor=none;fillColor=none;fontSize=13;fontFamily=Helvetica;fontColor=#0000FF;" parent="1" vertex="1">
                    <mxGeometry x="20" y="590" width="40" height="20" as="geometry"/>
                </mxCell>
                <mxCell id="6" value="セッション必要&lt;font color=&quot;#ff0a0a&quot;&gt;有&lt;/font&gt;&lt;font color=&quot;#3333ff&quot;&gt;無&lt;/font&gt;" style="ellipse;shape=cloud;whiteSpace=wrap;html=1;fontFamily=Helvetica;fontSize=13;" parent="1" vertex="1">
                    <mxGeometry x="120" y="160" width="220" height="100" as="geometry"/>
                </mxCell>
                <mxCell id="7" value="&lt;ul&gt;&lt;li&gt;Logout&lt;/li&gt;&lt;li&gt;LogoutPageController&lt;/li&gt;&lt;li&gt;WebController&lt;/li&gt;&lt;/ul&gt;" style="text;strokeColor=none;fillColor=none;html=1;whiteSpace=wrap;verticalAlign=middle;overflow=hidden;fontFamily=Helvetica;fontSize=13;" parent="1" vertex="1">
                    <mxGeometry x="-180" y="350" width="190" height="90" as="geometry"/>
                </mxCell>
                <mxCell id="8" value="" style="shape=flexArrow;endArrow=classic;html=1;fontFamily=Helvetica;fontSize=13;" parent="1" edge="1">
                    <mxGeometry width="50" height="50" relative="1" as="geometry">
                        <mxPoint x="229.5" y="280" as="sourcePoint"/>
                        <mxPoint x="229.5" y="380" as="targetPoint"/>
                    </mxGeometry>
                </mxCell>
                <mxCell id="9" value="必要" style="text;html=1;align=center;verticalAlign=middle;resizable=0;points=[];autosize=1;strokeColor=none;fillColor=none;fontSize=13;fontFamily=Helvetica;fontColor=#FF0000;" parent="1" vertex="1">
                    <mxGeometry x="240" y="310" width="40" height="20" as="geometry"/>
                </mxCell>
                <mxCell id="10" value="セッションがあればそのまま、&lt;br&gt;無ければ新たにクッキーをセットして同一ページにリダイレクト" style="text;html=1;align=left;verticalAlign=middle;resizable=0;points=[];autosize=1;strokeColor=none;fillColor=none;fontSize=13;fontFamily=Helvetica;fontColor=#000000;" parent="1" vertex="1">
                    <mxGeometry x="360" y="410" width="390" height="40" as="geometry"/>
                </mxCell>
                <mxCell id="11" value="&lt;h1&gt;loginController&lt;/h1&gt;" style="rounded=0;whiteSpace=wrap;html=1;" parent="1" vertex="1">
                    <mxGeometry x="120" y="720" width="220" height="60" as="geometry"/>
                </mxCell>
                <mxCell id="12" value="ログイン必要&lt;font color=&quot;#ff0a0a&quot;&gt;有&lt;/font&gt;&lt;font color=&quot;#3333ff&quot;&gt;無&lt;/font&gt;" style="ellipse;shape=cloud;whiteSpace=wrap;html=1;fontFamily=Helvetica;fontSize=13;" parent="1" vertex="1">
                    <mxGeometry x="120" y="480" width="220" height="100" as="geometry"/>
                </mxCell>
                <mxCell id="13" value="" style="shape=flexArrow;endArrow=classic;html=1;fontFamily=Helvetica;fontSize=13;" parent="1" edge="1">
                    <mxGeometry width="50" height="50" relative="1" as="geometry">
                        <mxPoint x="229.5" y="600" as="sourcePoint"/>
                        <mxPoint x="229.5" y="700" as="targetPoint"/>
                    </mxGeometry>
                </mxCell>
                <mxCell id="14" value="必要" style="text;html=1;align=center;verticalAlign=middle;resizable=0;points=[];autosize=1;strokeColor=none;fillColor=none;fontSize=13;fontFamily=Helvetica;fontColor=#FF0000;" parent="1" vertex="1">
                    <mxGeometry x="240" y="630" width="40" height="20" as="geometry"/>
                </mxCell>
                <mxCell id="15" value="" style="shape=flexArrow;endArrow=classic;html=1;fontFamily=Helvetica;fontSize=13;" parent="1" edge="1">
                    <mxGeometry width="50" height="50" relative="1" as="geometry">
                        <mxPoint x="130" y="260" as="sourcePoint"/>
                        <mxPoint x="-50" y="360" as="targetPoint"/>
                    </mxGeometry>
                </mxCell>
                <mxCell id="16" value="不要" style="text;html=1;align=center;verticalAlign=middle;resizable=0;points=[];autosize=1;strokeColor=none;fillColor=none;fontSize=13;fontFamily=Helvetica;fontColor=#0000FF;" parent="1" vertex="1">
                    <mxGeometry x="10" y="270" width="40" height="20" as="geometry"/>
                </mxCell>
                <mxCell id="17" value="ログインしている状態であればそのまま、&lt;br&gt;ログインしていなければ、ログインページへリダイレクト" style="text;html=1;align=left;verticalAlign=middle;resizable=0;points=[];autosize=1;strokeColor=none;fillColor=none;fontSize=13;fontFamily=Helvetica;fontColor=#000000;" parent="1" vertex="1">
                    <mxGeometry x="360" y="730" width="350" height="40" as="geometry"/>
                </mxCell>
                <mxCell id="18" value="&lt;h1&gt;pageController&lt;/h1&gt;" style="rounded=0;whiteSpace=wrap;html=1;" parent="1" vertex="1">
                    <mxGeometry x="120" y="930" width="220" height="60" as="geometry"/>
                </mxCell>
                <mxCell id="19" value="" style="shape=flexArrow;endArrow=classic;html=1;fontFamily=Helvetica;fontSize=13;" parent="1" edge="1">
                    <mxGeometry width="50" height="50" relative="1" as="geometry">
                        <mxPoint x="229.5" y="810" as="sourcePoint"/>
                        <mxPoint x="229.5" y="910" as="targetPoint"/>
                    </mxGeometry>
                </mxCell>
                <mxCell id="21" value="各コントローラに処理を委譲するためのコントローラ&lt;br&gt;ここで最終的なHTMLを生成してレスポンスを書き出す" style="text;html=1;align=left;verticalAlign=middle;resizable=0;points=[];autosize=1;strokeColor=none;fillColor=none;fontSize=13;fontFamily=Helvetica;fontColor=#000000;" parent="1" vertex="1">
                    <mxGeometry x="360" y="940" width="340" height="40" as="geometry"/>
                </mxCell>
                <mxCell id="22" value="&lt;h1&gt;各Controller&lt;/h1&gt;" style="rounded=0;whiteSpace=wrap;html=1;" parent="1" vertex="1">
                    <mxGeometry x="120" y="1140" width="220" height="60" as="geometry"/>
                </mxCell>
                <mxCell id="23" value="" style="shape=flexArrow;endArrow=classic;html=1;fontFamily=Helvetica;fontSize=13;" parent="1" edge="1">
                    <mxGeometry width="50" height="50" relative="1" as="geometry">
                        <mxPoint x="229.5" y="1010" as="sourcePoint"/>
                        <mxPoint x="229.5" y="1110" as="targetPoint"/>
                    </mxGeometry>
                </mxCell>
                <mxCell id="24" value="&lt;h1&gt;各Model&lt;/h1&gt;" style="rounded=0;whiteSpace=wrap;html=1;" parent="1" vertex="1">
                    <mxGeometry x="540" y="1140" width="220" height="60" as="geometry"/>
                </mxCell>
                <mxCell id="25" value="&lt;h1&gt;各View&lt;/h1&gt;" style="rounded=0;whiteSpace=wrap;html=1;" parent="1" vertex="1">
                    <mxGeometry x="960" y="1140" width="220" height="60" as="geometry"/>
                </mxCell>
                <mxCell id="29" value="userStruct" style="shape=parallelogram;perimeter=parallelogramPerimeter;whiteSpace=wrap;html=1;fixedSize=1;fontFamily=Helvetica;fontSize=13;fontColor=#000000;" parent="1" vertex="1">
                    <mxGeometry x="300" y="630" width="120" height="40" as="geometry"/>
                </mxCell>
                <mxCell id="31" value="userStruct" style="shape=parallelogram;perimeter=parallelogramPerimeter;whiteSpace=wrap;html=1;fixedSize=1;fontFamily=Helvetica;fontSize=13;fontColor=#000000;" parent="1" vertex="1">
                    <mxGeometry x="294" y="840" width="120" height="40" as="geometry"/>
                </mxCell>
                <mxCell id="32" value="user_id" style="shape=parallelogram;perimeter=parallelogramPerimeter;whiteSpace=wrap;html=1;fixedSize=1;fontFamily=Helvetica;fontSize=13;fontColor=#000000;" parent="1" vertex="1">
                    <mxGeometry x="294" y="1050" width="120" height="40" as="geometry"/>
                </mxCell>
                <mxCell id="33" value="" style="shape=flexArrow;endArrow=classic;html=1;fontFamily=Helvetica;fontSize=13;" parent="1" edge="1">
                    <mxGeometry width="50" height="50" relative="1" as="geometry">
                        <mxPoint x="360" y="1169.5" as="sourcePoint"/>
                        <mxPoint x="520" y="1170" as="targetPoint"/>
                    </mxGeometry>
                </mxCell>
                <mxCell id="34" value="" style="shape=flexArrow;endArrow=classic;html=1;fontFamily=Helvetica;fontSize=13;" parent="1" edge="1">
                    <mxGeometry width="50" height="50" relative="1" as="geometry">
                        <mxPoint x="780" y="1168" as="sourcePoint"/>
                        <mxPoint x="940" y="1168.5" as="targetPoint"/>
                    </mxGeometry>
                </mxCell>
                <mxCell id="35" value="user_id" style="shape=parallelogram;perimeter=parallelogramPerimeter;whiteSpace=wrap;html=1;fixedSize=1;fontFamily=Helvetica;fontSize=13;fontColor=#000000;" parent="1" vertex="1">
                    <mxGeometry x="380" y="1200" width="120" height="40" as="geometry"/>
                </mxCell>
                <mxCell id="36" value="modelStruct" style="shape=parallelogram;perimeter=parallelogramPerimeter;whiteSpace=wrap;html=1;fixedSize=1;fontFamily=Helvetica;fontSize=13;fontColor=#000000;" parent="1" vertex="1">
                    <mxGeometry x="800" y="1200" width="120" height="40" as="geometry"/>
                </mxCell>
                <mxCell id="39" value="&lt;div style=&quot;text-align: left&quot;&gt;&lt;span&gt;一回目のテンプレートエンジンレンダリング&lt;/span&gt;&lt;/div&gt;strings.builderを使用してHTMLの「{{{BODY}}}」部分を生成" style="text;html=1;align=center;verticalAlign=middle;resizable=0;points=[];autosize=1;strokeColor=none;fillColor=none;fontSize=18;fontFamily=Helvetica;fontColor=#FF00FF;" parent="1" vertex="1">
                    <mxGeometry x="680" y="1060" width="500" height="50" as="geometry"/>
                </mxCell>
                <mxCell id="40" value="&lt;div style=&quot;text-align: left&quot;&gt;&lt;span&gt;二回目のテンプレートエンジンレンダリング&lt;/span&gt;&lt;/div&gt;&lt;div style=&quot;text-align: left&quot;&gt;&lt;span&gt;Execute関数を使用してHTML全体を生成&lt;/span&gt;&lt;/div&gt;&lt;div style=&quot;text-align: left&quot;&gt;+ 「{{{BODY}}}」部分に各コントローラから受け取ったHTMLを埋め込み&lt;/div&gt;" style="text;html=1;align=center;verticalAlign=middle;resizable=0;points=[];autosize=1;strokeColor=none;fillColor=none;fontSize=18;fontFamily=Helvetica;fontColor=#FF00FF;" vertex="1" parent="1">
                    <mxGeometry x="440" y="870" width="600" height="70" as="geometry"/>
                </mxCell>
            </root>
        </mxGraphModel>
    </diagram>
</mxfile>